<svg width="248" height="248" xmlns="http://www.w3.org/2000/svg" xmlns:xlink="http://www.w3.org/1999/xlink" xml:space="preserve" overflow="hidden"><defs><clipPath id="clip0"><rect x="401" y="54" width="248" height="248"/></clipPath><clipPath id="clip1"><rect x="402" y="55" width="247" height="247"/></clipPath><clipPath id="clip2"><rect x="402" y="55" width="247" height="247"/></clipPath><clipPath id="clip3"><rect x="402" y="55" width="247" height="247"/></clipPath></defs><g clip-path="url(#clip0)" transform="translate(-401 -54)"><g clip-path="url(#clip1)"><g clip-path="url(#clip2)"><g clip-path="url(#clip3)"><path d="M471.469 289.135 582.104 289.135C587.788 289.135 592.396 284.528 592.396 278.844L461.177 278.844C461.177 284.528 465.785 289.135 471.469 289.135Z" fill="#D39C66" fill-rule="nonzero" fill-opacity="1"/><path d="M514.977 165.121C509.136 154.237 500.388 148.062 489.942 138.646 477.721 127.042 471.469 99.46 457.472 103.885 457.006 104.026 456.551 104.198 456.108 104.4 457.69 97.6062 461.438 91.5107 466.786 87.0328L462.901 81.887C458.386 85.5997 454.748 90.2652 452.249 95.5492 451.284 92.2599 449.401 89.3145 446.82 87.0585 440.774 82.0928 431.383 83.6366 431.383 83.6366 431.383 83.6366 431.846 93.1049 437.995 98.0449 441.494 100.643 445.787 101.944 450.139 101.724 449.76 103.358 449.501 105.018 449.367 106.69 448.492 106.739 447.627 106.903 446.794 107.179 430.765 112.144 443.192 137.771 439.693 154.263 437.467 162.125 435.638 170.094 434.213 178.14 438.778 179.584 443.415 180.787 448.107 181.742L448.493 181.742 452.301 182.488 453.047 182.642 457.086 183.337 457.935 183.491 462.309 184.186 463.055 184.186 467.892 184.881 468.381 184.881C486.364 187.129 504.469 188.263 522.593 188.277 521.674 180.117 519.081 172.234 514.977 165.121Z" fill="#D39C66" fill-rule="nonzero" fill-opacity="1"/><path d="M622.396 181.536 621.83 180.224C621.843 180.472 621.843 180.721 621.83 180.97 621.83 181.279 621.701 181.562 621.624 181.871L622.448 181.562Z" fill="#D39C66" fill-rule="nonzero" fill-opacity="1"/><path d="M619.978 168.62C621.754 172.212 622.4 176.257 621.83 180.224L621.393 181.742C613.13 184.798 604.579 187.005 595.869 188.329 593.451 188.766 590.955 189.152 588.408 189.538L584.188 190.078 580.56 190.567C578.554 190.824 576.495 191.03 574.437 191.236L572.404 191.468 564.686 192.136 563.862 192.136 555.191 192.728C546.315 193.243 537.181 193.526 527.713 193.577L525.5 193.577C476.074 193.577 443.167 186.991 429.556 181.69L428.552 181.69C428.861 177.31 429.541 172.963 430.585 168.697 419.033 172.505 412.292 176.956 412.292 181.742 412.292 217.428 431.048 248.921 459.968 268.14L591.032 268.14C619.952 248.921 638.708 217.428 638.708 181.742 638.708 176.905 631.813 172.402 619.978 168.62Z" fill="#D39C66" fill-rule="nonzero" fill-opacity="1"/><path d="M572.353 135.043C574.897 133.28 577.809 132.119 580.869 131.647 581.524 123.403 575.372 116.189 567.128 115.534 558.884 114.878 551.67 121.03 551.015 129.274 550.36 137.511 556.501 144.722 564.737 145.387 566.077 141.199 568.752 137.566 572.353 135.043Z" fill="#D39C66" fill-rule="nonzero" fill-opacity="1"/><path d="M627.851 149.555C627.851 157.825 621.146 164.529 612.876 164.529 604.606 164.529 597.902 157.825 597.902 149.555 597.902 141.285 604.606 134.58 612.876 134.58 621.146 134.58 627.851 141.285 627.851 149.555Z" fill="#D39C66" fill-rule="nonzero" fill-opacity="1"/><path d="M597.387 136.742C598.538 135.335 599.88 134.096 601.375 133.062 602.819 132.053 604.395 131.248 606.058 130.669 621.032 120.558 629.549 125.241 629.652 125.318L630.99 123.105 632.353 120.918C627.943 118.719 622.873 118.233 618.125 119.554 614.151 114.087 609.077 109.512 603.228 106.124L603.588 105.558C605.829 102.112 607.075 98.1144 607.19 94.0054 608.013 85.592 599.471 77.8732 599.471 77.8732 597.271 79.6422 595.51 81.8968 594.326 84.4599 593.665 83.5393 592.924 82.6782 592.113 81.887 583.133 73.0104 565.071 73.1905 565.071 73.1905 563.688 79.2717 564.246 85.6334 566.667 91.381L566.126 91.381C548.914 89.7086 536.538 103.551 536.538 103.551 536.77 105.029 537.158 106.478 537.696 107.873 538.547 107.74 539.407 107.671 540.269 107.668 545.761 107.672 551.013 109.921 554.806 113.894 563.947 107.651 576.418 110 582.661 119.142 585.162 122.804 586.378 127.193 586.118 131.621 590.323 132.086 594.271 133.88 597.387 136.742ZM602.147 111.604C606.258 114.159 609.918 117.375 612.979 121.124 609.908 122.342 606.969 123.867 604.206 125.678 604.772 122.068 604.327 118.372 602.919 115 602.306 113.979 602.036 112.79 602.147 111.604Z" fill="#D39C66" fill-rule="nonzero" fill-opacity="1"/><path d="M612.979 169.649C607.272 169.677 601.82 167.284 597.979 163.062 590.046 165.19 585.34 173.346 587.468 181.279 587.753 182.34 588.154 183.367 588.665 184.341 590.955 183.98 593.245 183.646 595.406 183.26 602.677 182.08 609.849 180.36 616.864 178.114 616.995 175.091 616.196 172.101 614.574 169.546 614.008 169.572 613.468 169.649 612.979 169.649Z" fill="#D39C66" fill-rule="nonzero" fill-opacity="1"/><path d="M563.811 150.455C558.027 149.842 552.791 146.755 549.454 141.99 548.932 141.228 548.468 140.429 548.065 139.598 546.804 140.022 545.609 140.619 544.514 141.373 537.733 146.082 536.053 155.397 540.763 162.178 543.82 166.581 549.002 169.01 554.342 168.543 555.741 166.384 557.551 164.522 559.668 163.062 561.522 161.779 563.586 160.83 565.766 160.258 564.288 157.211 563.615 153.836 563.811 150.455Z" fill="#D39C66" fill-rule="nonzero" fill-opacity="1"/><path d="M551.358 175.927C551.509 175.136 551.707 174.354 551.95 173.586 546.677 173.292 541.733 170.935 538.185 167.025 530.241 169.166 525.537 177.342 527.678 185.286 527.967 186.359 528.376 187.397 528.896 188.38 537.052 188.38 545.08 188.097 552.876 187.685 551.18 184.013 550.65 179.909 551.358 175.927Z" fill="#D39C66" fill-rule="nonzero" fill-opacity="1"/><path d="M582.747 171.579C577.377 171.287 572.347 168.86 568.776 164.838 566.545 165.202 564.431 166.083 562.601 167.411 556.072 171.951 554.26 180.819 558.485 187.557 567.207 186.991 575.543 186.167 583.313 185.164 581.558 180.837 581.358 176.036 582.747 171.579Z" fill="#D39C66" fill-rule="nonzero" fill-opacity="1"/><path d="M585.115 166.433C586.52 164.28 588.328 162.419 590.44 160.953 591.847 159.994 593.368 159.216 594.969 158.637 592.971 154.756 592.302 150.327 593.065 146.03 593.372 144.35 593.891 142.716 594.609 141.167 588.88 135.221 579.417 135.045 573.471 140.773 567.526 146.501 567.35 155.965 573.078 161.91 576.203 165.155 580.626 166.816 585.115 166.433Z" fill="#D39C66" fill-rule="nonzero" fill-opacity="1"/><path d="M534.196 146.905C530.557 145.779 527.311 143.647 524.831 140.755 518.417 140.383 512.497 144.201 510.191 150.198 513.859 153.953 516.993 158.195 519.505 162.805 520.875 165.369 522.103 168.006 523.184 170.704 523.896 170.743 524.608 170.743 525.32 170.704 527.671 167.111 531.145 164.397 535.2 162.985 532.64 157.999 532.277 152.171 534.196 146.905Z" fill="#D39C66" fill-rule="nonzero" fill-opacity="1"/><path d="M550.818 117.265C545.039 111.368 535.575 111.271 529.678 117.05 523.781 122.828 523.685 132.292 529.463 138.189 531.414 140.18 533.882 141.586 536.589 142.248 537.922 140.239 539.614 138.495 541.581 137.102 543.052 136.121 544.643 135.334 546.315 134.76 544.966 128.545 546.635 122.057 550.818 117.265Z" fill="#D39C66" fill-rule="nonzero" fill-opacity="1"/></g></g></g></g></svg>