<svg width="248" height="249" xmlns="http://www.w3.org/2000/svg" xmlns:xlink="http://www.w3.org/1999/xlink" xml:space="preserve" overflow="hidden"><defs><clipPath id="clip0"><rect x="802" y="68" width="248" height="249"/></clipPath><clipPath id="clip1"><rect x="803" y="69" width="247" height="248"/></clipPath><clipPath id="clip2"><rect x="803" y="69" width="247" height="248"/></clipPath><clipPath id="clip3"><rect x="803" y="69" width="247" height="248"/></clipPath></defs><g clip-path="url(#clip0)" transform="translate(-802 -68)"><g clip-path="url(#clip1)"><g clip-path="url(#clip2)"><g clip-path="url(#clip3)"><path d="M123.5 39.8802C127.874 39.8802 131.219 36.5354 131.219 32.1615 131.219 27.7875 127.874 16.724 123.5 16.724 119.126 16.724 124.529 21.8698 118.354 27.0156 118.097 27.2729 118.097 27.2729 117.84 27.5302 116.81 28.8167 115.781 30.1031 115.781 32.1615 115.781 36.5354 119.126 39.8802 123.5 39.8802Z" fill="#F2CD7C" fill-rule="nonzero" fill-opacity="1" transform="matrix(1 0 0 1.00405 803 69)"/><path d="M97.7708 52.7448C102.145 52.7448 105.49 49.4 105.49 45.026 105.49 40.6521 102.145 29.5885 97.7708 29.5885 93.3969 29.5885 98.8 34.7344 92.625 39.8802 92.3677 40.1375 92.3677 40.1375 92.1104 40.3948 91.0813 41.6813 90.0521 42.9677 90.0521 45.026 90.0521 49.4 93.3969 52.7448 97.7708 52.7448Z" fill="#F2CD7C" fill-rule="nonzero" fill-opacity="1" transform="matrix(1 0 0 1.00405 803 69)"/><path d="M149.229 52.7448C153.603 52.7448 156.948 49.4 156.948 45.026 156.948 40.6521 153.603 29.5885 149.229 29.5885 144.855 29.5885 150.258 34.7344 144.083 39.8802 143.826 40.1375 143.826 40.1375 143.569 40.3948 142.54 41.6813 141.51 42.9677 141.51 45.026 141.51 49.4 144.855 52.7448 149.229 52.7448Z" fill="#F2CD7C" fill-rule="nonzero" fill-opacity="1" transform="matrix(1 0 0 1.00405 803 69)"/><path d="M77.1875 148.715C85.1635 140.739 100.858 140.739 108.834 148.715 110.893 150.773 116.553 150.773 118.611 148.715 126.588 140.739 142.282 140.739 150.258 148.715 152.317 150.773 157.977 150.773 160.035 148.715 168.011 140.739 183.706 140.739 191.682 148.715 192.454 149.486 193.741 150.001 195.284 150.258L195.284 109.349C195.284 102.402 179.59 96.4844 156.691 93.3969L156.691 65.6094C156.691 64.0656 153.346 63.0365 148.972 63.0365 144.598 63.0365 141.253 64.0656 141.253 65.6094L141.253 91.8531C137.908 91.5958 134.564 91.5958 130.961 91.3385L130.961 52.7448C130.961 51.201 127.617 50.1719 123.243 50.1719 118.869 50.1719 115.524 51.201 115.524 52.7448L115.524 91.3385C111.922 91.3385 108.577 91.5958 105.232 91.8531L105.232 65.6094C105.232 64.0656 101.887 63.0365 97.5135 63.0365 93.1396 63.0365 89.7948 64.0656 89.7948 65.6094L89.7948 93.3969C66.8958 96.4844 51.201 102.402 51.201 109.349L51.201 142.797C57.1188 142.797 63.0365 144.855 67.1531 148.715 69.4688 150.773 75.1292 150.773 77.1875 148.715Z" fill="#F2CD7C" fill-rule="nonzero" fill-opacity="1" transform="matrix(1 0 0 1.00405 803 69)"/><path d="M195.542 165.696C190.139 165.439 184.735 163.38 181.133 159.778 179.075 157.72 173.415 157.72 171.356 159.778 163.38 167.754 147.685 167.754 139.709 159.778 137.651 157.72 131.991 157.72 129.932 159.778 121.956 167.754 106.261 167.754 98.2854 159.778 96.2271 157.72 90.5667 157.72 88.5083 159.778 80.5323 167.754 64.8375 167.754 56.8615 159.778 55.8323 158.749 53.774 158.234 51.9729 158.234L51.9729 204.547 196.056 204.547 196.056 165.696Z" fill="#F2CD7C" fill-rule="nonzero" fill-opacity="1" transform="matrix(1 0 0 1.00405 803 69)"/><path d="M195.542 214.839 51.4583 214.839C47.0844 214.839 43.7396 218.183 43.7396 222.557 43.7396 226.931 47.0844 230.276 51.4583 230.276L195.542 230.276C199.916 230.276 203.26 226.931 203.26 222.557 203.26 218.183 199.916 214.839 195.542 214.839Z" fill="#F2CD7C" fill-rule="nonzero" fill-opacity="1" transform="matrix(1 0 0 1.00405 803 69)"/></g></g></g></g></svg>