<svg width="248" height="248" xmlns="http://www.w3.org/2000/svg" xmlns:xlink="http://www.w3.org/1999/xlink" xml:space="preserve" overflow="hidden"><defs><clipPath id="clip0"><rect x="840" y="360" width="248" height="248"/></clipPath><clipPath id="clip1"><rect x="841" y="360" width="247" height="247"/></clipPath><clipPath id="clip2"><rect x="841" y="360" width="247" height="247"/></clipPath><clipPath id="clip3"><rect x="841" y="360" width="247" height="247"/></clipPath></defs><g clip-path="url(#clip0)" transform="translate(-840 -360)"><g clip-path="url(#clip1)"><g clip-path="url(#clip2)"><g clip-path="url(#clip3)"><path d="M970.418 520.035 886.026 520.035C881.138 520.035 877.021 524.152 877.021 529.041 877.021 533.929 881.138 538.046 886.026 538.046L927.707 538.046 940.572 550.139 953.694 538.046 970.418 538.046C975.306 538.046 979.423 533.929 979.423 529.041 979.423 524.152 975.306 520.035 970.418 520.035Z" fill="#C8533C" fill-rule="nonzero" fill-opacity="1"/><path d="M940.057 564.032 922.304 547.566 876.506 547.566 876.506 559.658C876.506 566.348 881.909 571.751 888.599 571.751L967.073 571.751C973.763 571.751 979.166 566.348 979.166 559.658L979.166 547.566 958.068 547.566 940.057 564.032Z" fill="#C8533C" fill-rule="nonzero" fill-opacity="1"/><path d="M927.707 470.635C899.405 470.635 876.506 481.442 876.506 509.744L978.908 509.744C978.908 481.699 956.009 470.635 927.707 470.635Z" fill="#C8533C" fill-rule="nonzero" fill-opacity="1"/><path d="M1050.95 404.254C1053.01 402.196 1053.01 399.108 1050.95 397.05 1048.89 394.992 1045.8 394.992 1043.75 397.05L1018.02 423.551 1016.99 433.071 945.975 433.071 945.975 440.79 947.776 462.659C974.277 468.062 989.457 485.044 989.457 510.258L989.457 559.916C989.457 564.29 988.171 568.406 985.855 572.008L1028.57 572.008 1038.86 440.79 1038.86 433.071 1028.05 433.071 1028.57 427.925 1050.95 404.254Z" fill="#C8533C" fill-rule="nonzero" fill-opacity="1"/></g></g></g></g></svg>